<?xml version="1.0" encoding="UTF-8" standalone="no"?>
<!DOCTYPE svg PUBLIC "-//W3C//DTD SVG 1.1//EN" "http://www.w3.org/Graphics/SVG/1.1/DTD/svg11.dtd">
<svg width="100%" height="100%" viewBox="0 0 1024 1024" version="1.1" xmlns="http://www.w3.org/2000/svg" xmlns:xlink="http://www.w3.org/1999/xlink" xml:space="preserve" xmlns:serif="http://www.serif.com/" style="fill-rule:evenodd;clip-rule:evenodd;stroke-linejoin:round;stroke-miterlimit:2;">
    <path d="M1024,256L1024,768C1024,909.29 909.29,1024 768,1024L256,1024C114.71,1024 0,909.29 0,768L0,256C0,114.71 114.71,0 256,0L768,0C909.29,0 1024,114.71 1024,256Z" style="fill:rgb(13,36,56);"/>
    <g transform="matrix(1.750696,0,0,1.750696,-396.148633,-58.476538)">
        <path d="M530.141,297.262C530.141,297.262 527.966,298.679 527.916,298.711C527.916,298.712 527.915,298.712 527.915,298.713C527.876,298.737 526.513,299.61 526.454,299.647C526.453,299.648 526.452,299.649 526.45,299.65C526.373,299.702 523.94,301.323 523.823,301.401C523.82,301.403 523.817,301.405 523.814,301.407C523.703,301.474 521.583,302.759 521.36,302.895C521.347,302.903 521.335,302.911 521.324,302.921C521.097,303.123 518.628,305.316 518.553,305.383C518.552,305.384 518.55,305.385 518.549,305.386C518.487,305.439 516.792,306.888 516.667,306.995C516.662,306.999 516.657,307.003 516.653,307.008C516.532,307.128 514.84,308.82 514.757,308.903C514.755,308.905 514.753,308.907 514.751,308.909C514.665,308.989 512.882,310.648 512.718,310.8C512.71,310.808 512.703,310.816 512.696,310.824C512.57,310.978 511.348,312.467 511.197,312.65C511.187,312.663 511.176,312.674 511.163,312.684C510.993,312.825 509.693,313.895 509.572,313.995C509.566,314 509.56,314.005 509.554,314.011C509.453,314.112 508.475,315.09 508.302,315.263C508.285,315.28 508.271,315.3 508.259,315.321C508.152,315.522 507.579,316.602 507.481,316.786C507.472,316.804 507.46,316.82 507.446,316.835C507.287,317.012 506.242,318.168 506.141,318.281C506.136,318.286 506.131,318.292 506.126,318.299C506.038,318.417 505.154,319.609 505.048,319.752C505.041,319.761 505.035,319.771 505.029,319.781C504.94,319.947 504.156,321.397 504.09,321.52C504.086,321.525 504.084,321.531 504.081,321.537C504.018,321.679 503.196,323.529 503.136,323.664C503.134,323.669 503.131,323.674 503.129,323.68C503.08,323.816 502.413,325.65 502.372,325.762C502.371,325.765 502.37,325.769 502.368,325.772C502.329,325.867 501.764,327.222 501.669,327.45C501.66,327.471 501.655,327.494 501.652,327.517C501.62,327.807 501.396,329.819 501.372,330.035C501.371,330.048 501.37,330.06 501.371,330.073C501.38,330.28 501.46,332.127 501.465,332.24C501.465,332.243 501.465,332.247 501.465,332.25C501.465,332.421 501.465,336.661 501.465,337.071C501.465,337.092 501.468,337.114 501.474,337.134C501.53,337.349 501.866,338.616 501.892,338.716C501.893,338.721 501.894,338.725 501.895,338.729C501.921,338.854 502.321,340.77 502.366,340.989C502.369,341.002 502.373,341.015 502.378,341.028C502.464,341.248 503.26,343.277 503.319,343.429C503.322,343.435 503.324,343.441 503.326,343.447C503.375,343.61 504.063,345.878 504.128,346.089C504.131,346.1 504.135,346.11 504.14,346.12C504.227,346.311 505.116,348.252 505.177,348.384C505.179,348.389 505.182,348.394 505.184,348.398C505.259,348.538 506.443,350.736 506.511,350.863C506.513,350.866 506.515,350.87 506.517,350.874C506.565,350.976 507.231,352.387 507.315,352.565C507.321,352.577 507.328,352.589 507.335,352.6C507.479,352.807 508.917,354.879 508.943,354.916C508.943,354.917 508.943,354.917 508.944,354.917C508.97,354.956 510.521,357.216 510.607,357.341C510.609,357.344 510.612,357.348 510.614,357.351C510.693,357.453 511.898,359.023 511.994,359.148C511.998,359.153 512.002,359.158 512.007,359.163C512.111,359.278 513.39,360.689 513.465,360.772C513.467,360.774 513.469,360.777 513.471,360.779C513.544,360.867 514.806,362.381 514.892,362.484C514.895,362.488 514.899,362.492 514.902,362.495C515.033,362.635 517.715,365.492 517.8,365.584C517.802,365.585 517.803,365.587 517.805,365.588C517.886,365.68 520.389,368.485 520.556,368.672C520.562,368.679 520.568,368.685 520.575,368.691C520.755,368.854 523.375,371.22 523.512,371.344C523.516,371.348 523.52,371.351 523.523,371.355C523.636,371.47 525.514,373.39 525.61,373.489C525.613,373.491 525.615,373.494 525.617,373.497C525.708,373.598 527.463,375.562 527.605,375.721C527.611,375.728 527.618,375.734 527.625,375.74C527.785,375.884 529.772,377.659 529.85,377.73C529.852,377.731 529.854,377.732 529.855,377.734C529.938,377.812 532.168,379.913 532.321,380.058C532.327,380.063 532.333,380.068 532.339,380.073C532.489,380.19 534.485,381.747 534.694,381.909C534.705,381.919 534.716,381.929 534.726,381.94C534.916,382.154 536.872,384.354 536.992,384.489C536.995,384.493 536.999,384.497 537.004,384.501C537.124,384.619 538.969,386.423 539.13,386.58C539.137,386.587 539.145,386.594 539.153,386.6C539.323,386.728 541.167,388.122 541.279,388.206C541.282,388.209 541.286,388.212 541.289,388.215C541.419,388.325 544,390.504 544.046,390.544C544.046,390.544 544.047,390.544 544.047,390.545C544.092,390.582 546.492,392.582 546.614,392.683C546.617,392.686 546.62,392.689 546.624,392.691C546.76,392.794 549.636,394.95 549.667,394.974C549.667,394.974 549.667,394.974 549.667,394.974C549.722,395.015 558.174,401.318 558.287,401.403C558.288,401.404 558.288,401.404 558.289,401.405C558.399,401.489 566.322,407.545 566.57,407.734C566.574,407.737 566.578,407.74 566.582,407.743C566.875,407.94 577.548,415.115 577.903,415.353C577.909,415.357 577.914,415.362 577.92,415.366C578.112,415.522 581.489,418.257 581.667,418.402C581.672,418.406 581.677,418.41 581.682,418.413C581.86,418.536 585.056,420.742 585.056,420.742C585.074,420.754 588.129,422.865 588.289,422.976C588.293,422.979 588.297,422.982 588.302,422.984C588.486,423.095 592.388,425.436 592.575,425.548C592.579,425.551 592.584,425.554 592.588,425.557C592.829,425.724 599.486,430.343 599.582,430.41C599.583,430.41 599.584,430.411 599.584,430.411C599.662,430.466 603.957,433.514 604.012,433.554C604.013,433.554 604.013,433.554 604.013,433.555C604.064,433.59 607.514,436.067 607.719,436.215C607.725,436.219 607.731,436.223 607.738,436.227C607.947,436.349 611.317,438.311 611.484,438.409C611.489,438.411 611.493,438.414 611.497,438.417C611.676,438.536 615.659,441.191 615.775,441.268C615.777,441.27 615.778,441.271 615.78,441.272C615.889,441.349 619.491,443.884 619.631,443.982C619.634,443.984 619.637,443.986 619.64,443.988C619.809,444.097 624.895,447.366 624.969,447.414C624.97,447.414 624.97,447.415 624.971,447.415C625.046,447.462 630.194,450.713 630.394,450.84C630.398,450.843 630.402,450.845 630.406,450.848C630.574,450.969 634.368,453.685 634.582,453.838C634.588,453.842 634.595,453.846 634.601,453.85C634.863,454.002 640.161,457.086 640.394,457.222C640.4,457.225 640.405,457.228 640.41,457.231C640.618,457.374 645.056,460.423 645.117,460.465C645.117,460.465 645.118,460.465 645.118,460.466C645.176,460.505 649.147,463.196 649.392,463.362C649.4,463.368 649.409,463.373 649.417,463.377C649.649,463.497 652.952,465.21 653.242,465.36C653.256,465.367 653.268,465.376 653.28,465.385C653.462,465.528 654.96,466.701 655.023,466.751C655.024,466.752 655.025,466.753 655.027,466.754C655.076,466.79 655.966,467.459 656.139,467.588C656.158,467.602 656.179,467.614 656.202,467.622C656.374,467.685 657.154,467.971 657.467,468.086C657.547,468.116 657.607,468.185 657.623,468.269C657.678,468.553 657.804,469.206 657.858,469.482C657.873,469.562 657.848,469.645 657.791,469.702C657.609,469.884 657.208,470.285 657.047,470.446C657.002,470.49 656.943,470.516 656.88,470.518C656.333,470.533 653.663,470.607 653.552,470.61C653.549,470.61 653.547,470.61 653.545,470.61C652.864,470.609 555.123,470.471 552.438,470.468C552.401,470.467 552.365,470.459 552.331,470.443C552.064,470.312 550.822,469.707 550.659,469.628C550.648,469.622 550.636,469.615 550.626,469.608C550.482,469.507 549.417,468.757 549.358,468.716C549.357,468.715 549.355,468.714 549.353,468.712C549.291,468.666 548.082,467.769 547.902,467.635C547.887,467.624 547.873,467.612 547.861,467.598C547.704,467.413 546.572,466.086 546.501,466.003C546.499,466.001 546.497,465.998 546.494,465.995C546.423,465.919 545.319,464.733 545.219,464.626C545.214,464.621 545.209,464.616 545.204,464.611C545.093,464.511 543.844,463.383 543.742,463.29C543.738,463.286 543.733,463.282 543.729,463.278C543.646,463.191 542.753,462.257 542.691,462.192C542.689,462.19 542.686,462.188 542.684,462.185C542.609,462.113 541.347,460.895 541.307,460.856C541.307,460.856 541.306,460.855 541.305,460.854C541.261,460.813 539.732,459.368 539.601,459.244C539.595,459.239 539.589,459.233 539.584,459.226C539.471,459.096 538.211,457.639 538.079,457.486C538.071,457.478 538.063,457.47 538.055,457.462C537.911,457.337 536.612,456.2 536.546,456.142C536.544,456.141 536.542,456.139 536.541,456.137C536.48,456.081 535.347,455.032 535.262,454.954C535.259,454.951 535.256,454.948 535.252,454.945C535.167,454.874 534.073,453.969 533.899,453.825C533.884,453.812 533.87,453.798 533.858,453.782C533.766,453.657 533.345,453.086 533.236,452.937C533.218,452.913 533.197,452.893 533.172,452.877C532.996,452.762 532.25,452.275 532.13,452.197C532.119,452.19 532.109,452.182 532.099,452.173C531.948,452.037 530.66,450.869 530.592,450.808C530.59,450.806 530.589,450.804 530.587,450.803C530.517,450.743 529.154,449.581 528.987,449.438C528.976,449.429 528.965,449.418 528.956,449.407C528.821,449.242 527.75,447.933 527.687,447.856C527.685,447.853 527.683,447.851 527.681,447.849C527.611,447.77 526.35,446.34 526.26,446.239C526.257,446.235 526.253,446.231 526.25,446.227C526.149,446.127 524.682,444.659 524.637,444.614C524.636,444.614 524.635,444.613 524.635,444.612C524.584,444.563 522.708,442.731 522.637,442.663C522.636,442.661 522.635,442.66 522.633,442.658C522.563,442.586 520.652,440.632 520.544,440.522C520.541,440.519 520.538,440.516 520.535,440.513C520.419,440.406 518.294,438.459 518.254,438.422C518.254,438.422 518.253,438.421 518.253,438.421C518.216,438.387 516.448,436.745 516.268,436.578C516.258,436.568 516.249,436.559 516.241,436.548C516.099,436.365 514.789,434.669 514.646,434.484C514.638,434.474 514.628,434.463 514.618,434.454C514.45,434.298 512.921,432.887 512.786,432.762C512.779,432.756 512.773,432.75 512.767,432.744C512.659,432.62 511.562,431.366 511.451,431.24C511.445,431.233 511.439,431.226 511.432,431.22C511.295,431.094 509.775,429.705 509.775,429.705C509.76,429.691 508.304,428.364 508.166,428.238C508.159,428.232 508.153,428.225 508.147,428.218C508.039,428.095 507.029,426.935 506.886,426.771C506.875,426.758 506.863,426.747 506.85,426.737C506.669,426.6 505.337,425.592 505.134,425.438C505.116,425.425 505.101,425.41 505.087,425.392C504.928,425.185 503.865,423.808 503.823,423.753C503.822,423.752 503.821,423.751 503.82,423.75C503.77,423.686 502.318,421.873 502.298,421.846C502.297,421.846 502.297,421.846 502.297,421.846C502.276,421.82 500.834,420.029 500.731,419.901C500.727,419.896 500.724,419.891 500.72,419.886C500.644,419.775 499.763,418.494 499.683,418.378C499.68,418.372 499.675,418.367 499.671,418.361C499.561,418.227 498.09,416.429 497.971,416.283C497.966,416.277 497.96,416.271 497.954,416.265C497.804,416.114 495.732,414.042 495.589,413.9C495.584,413.895 495.579,413.889 495.574,413.884C495.443,413.727 493.512,411.417 493.396,411.279C493.392,411.274 493.389,411.27 493.385,411.266C493.263,411.14 491.295,409.091 491.076,408.864C491.063,408.85 491.052,408.835 491.042,408.819C490.903,408.584 489.805,406.729 489.686,406.527C489.679,406.515 489.671,406.504 489.662,406.493C489.476,406.274 487.414,403.841 487.299,403.705C487.295,403.701 487.292,403.697 487.289,403.693C487.197,403.569 485.736,401.608 485.633,401.468C485.629,401.463 485.625,401.458 485.622,401.452C485.535,401.315 484.399,399.506 484.343,399.416C484.341,399.414 484.34,399.411 484.338,399.409C484.283,399.327 483.236,397.777 483.155,397.657C483.152,397.653 483.148,397.648 483.145,397.643C483.031,397.499 481.182,395.146 481.061,394.991C481.056,394.985 481.052,394.98 481.049,394.974C480.956,394.834 479.752,393.007 479.677,392.893C479.674,392.889 479.672,392.885 479.67,392.881C479.599,392.76 478.434,390.764 478.345,390.61C478.341,390.604 478.337,390.598 478.333,390.592C478.229,390.445 476.861,388.514 476.73,388.329C476.723,388.319 476.717,388.309 476.712,388.299C476.624,388.128 475.841,386.601 475.772,386.467C475.769,386.46 475.765,386.454 475.762,386.448C475.684,386.324 474.836,384.976 474.73,384.807C474.723,384.796 474.717,384.784 474.712,384.771C474.64,384.598 474.096,383.294 474.015,383.099C474.008,383.083 474,383.068 473.99,383.054C473.891,382.912 473.335,382.112 473.253,381.994C473.246,381.985 473.24,381.975 473.235,381.964C473.165,381.823 472.648,380.791 472.583,380.66C472.578,380.651 472.573,380.642 472.568,380.633C472.479,380.501 471.726,379.37 471.633,379.231C471.627,379.222 471.621,379.212 471.616,379.202C471.543,379.051 470.95,377.826 470.911,377.745C470.91,377.742 470.908,377.739 470.907,377.736C470.86,377.63 469.958,375.568 469.911,375.459C469.91,375.456 469.908,375.453 469.907,375.45C469.864,375.363 469.197,373.989 469.109,373.807C469.102,373.794 469.097,373.78 469.093,373.766C469.034,373.554 468.552,371.826 468.528,371.742C468.528,371.74 468.527,371.738 468.527,371.736C468.501,371.654 467.977,369.951 467.957,369.884C467.956,369.882 467.956,369.881 467.955,369.88C467.934,369.807 467.36,367.82 467.338,367.741C467.337,367.739 467.337,367.738 467.336,367.736C467.312,367.659 466.714,365.736 466.672,365.602C466.671,365.597 466.669,365.593 466.667,365.588C466.621,365.466 465.998,363.831 465.917,363.617C465.911,363.602 465.907,363.587 465.904,363.57C465.868,363.353 465.597,361.727 465.576,361.602C465.575,361.597 465.574,361.592 465.573,361.587C465.543,361.458 465.143,359.74 465.102,359.561C465.099,359.551 465.096,359.541 465.093,359.532C465.046,359.406 464.713,358.506 464.637,358.301C464.627,358.274 464.622,358.245 464.622,358.216C464.622,357.909 464.622,356.096 464.622,355.937C464.622,355.93 464.622,355.922 464.623,355.915C464.641,355.717 464.895,352.923 464.907,352.788C464.908,352.784 464.908,352.781 464.908,352.777C464.915,352.624 465.088,349.081 465.098,348.885C465.098,348.88 465.099,348.874 465.099,348.868C465.121,348.681 465.509,345.411 465.526,345.262C465.527,345.259 465.527,345.255 465.528,345.252C465.553,345.097 466.13,341.544 466.146,341.449C466.146,341.447 466.146,341.446 466.146,341.445C466.156,341.375 466.43,339.502 466.474,339.201C466.477,339.174 466.486,339.148 466.498,339.124C466.608,338.912 467.162,337.838 467.234,337.699C467.239,337.689 467.243,337.679 467.247,337.668C467.315,337.477 467.978,335.605 468.046,335.413C468.049,335.403 468.054,335.393 468.059,335.383C468.13,335.245 468.67,334.202 468.754,334.038C468.762,334.024 468.768,334.008 468.772,333.993C468.832,333.785 469.267,332.263 469.33,332.042C469.335,332.025 469.342,332.008 469.351,331.992C469.41,331.883 469.655,331.437 469.783,331.205C469.83,331.119 469.822,331.013 469.761,330.936C469.665,330.813 469.52,330.629 469.427,330.511C469.372,330.44 469.282,330.406 469.194,330.42C469.078,330.44 468.919,330.466 468.831,330.481C468.788,330.488 468.748,330.506 468.715,330.534C468.545,330.675 468.008,331.123 467.92,331.196C467.912,331.203 467.905,331.21 467.898,331.218C467.785,331.339 466.806,332.393 466.683,332.526C466.674,332.535 466.666,332.545 466.659,332.555C466.551,332.715 465.649,334.049 465.579,334.153C465.576,334.157 465.573,334.161 465.57,334.165C465.478,334.284 464.073,336.102 463.962,336.246C463.957,336.252 463.953,336.258 463.949,336.265C463.861,336.404 462.839,338.015 462.727,338.192C462.72,338.202 462.713,338.212 462.704,338.222C462.563,338.384 461.242,339.899 461.108,340.053C461.101,340.061 461.094,340.07 461.088,340.079C460.982,340.241 459.982,341.76 459.911,341.869C459.908,341.873 459.905,341.877 459.903,341.882C459.837,341.996 458.9,343.625 458.817,343.77C458.813,343.777 458.809,343.784 458.804,343.79C458.69,343.95 457.195,346.052 457.059,346.243C457.052,346.253 457.046,346.262 457.041,346.272C456.939,346.468 455.883,348.499 455.814,348.632C455.812,348.636 455.809,348.641 455.807,348.646C455.741,348.796 454.632,351.3 454.532,351.528C454.527,351.539 454.523,351.55 454.52,351.562C454.463,351.765 453.929,353.695 453.906,353.78C453.905,353.782 453.905,353.784 453.904,353.786C453.882,353.858 453.452,355.277 453.43,355.352C453.429,355.354 453.429,355.356 453.428,355.358C453.406,355.439 452.946,357.109 452.908,357.25C452.906,357.257 452.904,357.263 452.903,357.269C452.875,357.415 452.542,359.166 452.525,359.257C452.524,359.259 452.524,359.261 452.523,359.264C452.504,359.384 452.02,362.421 452.001,362.543C452,362.545 452,362.548 451.999,362.55C451.98,362.65 451.587,364.705 451.572,364.783C451.571,364.785 451.571,364.786 451.571,364.788C451.558,364.861 451.248,366.667 451.224,366.807C451.223,366.813 451.222,366.819 451.222,366.825C451.21,366.944 451.081,368.248 451.064,368.418C451.063,368.43 451.062,368.442 451.063,368.454C451.071,368.616 451.13,369.814 451.136,369.938C451.136,369.945 451.137,369.952 451.138,369.958C451.199,370.414 451.45,371.798 451.615,372.438C451.618,372.448 451.62,372.459 451.621,372.469C451.647,372.68 451.936,374.989 451.952,375.116C451.952,375.119 451.952,375.123 451.953,375.127C451.963,375.249 452.134,377.393 452.143,377.499C452.143,377.501 452.143,377.504 452.143,377.507C452.155,377.614 452.407,379.836 452.427,380.016C452.428,380.023 452.429,380.031 452.431,380.038C452.471,380.231 453.019,382.844 453.047,382.975C453.047,382.978 453.048,382.982 453.049,382.985C453.082,383.114 453.732,385.67 453.761,385.786C453.762,385.789 453.763,385.792 453.763,385.794C453.79,385.884 454.238,387.423 454.292,387.606C454.295,387.618 454.299,387.63 454.304,387.641C454.381,387.806 454.996,389.13 455.063,389.276C455.067,389.284 455.071,389.293 455.074,389.302C455.124,389.456 455.584,390.855 455.637,391.017C455.64,391.027 455.643,391.037 455.645,391.048C455.678,391.224 455.982,392.829 456.023,393.047C456.027,393.063 456.031,393.079 456.037,393.094C456.134,393.329 456.938,395.293 456.96,395.346C456.96,395.347 456.961,395.347 456.961,395.348C456.981,395.395 457.629,396.935 457.677,397.049C457.679,397.054 457.681,397.058 457.683,397.063C457.745,397.189 458.698,399.123 458.759,399.247C458.761,399.251 458.763,399.256 458.766,399.26C458.828,399.37 459.72,400.949 459.775,401.047C459.777,401.05 459.779,401.053 459.781,401.056C459.822,401.123 460.299,401.886 460.355,401.975C460.359,401.981 460.362,401.987 460.365,401.993C460.437,402.133 461.343,403.886 461.391,403.978C461.392,403.98 461.393,403.983 461.395,403.985C461.451,404.086 462.657,406.236 462.766,406.431C462.772,406.441 462.776,406.45 462.78,406.461C462.865,406.674 463.819,409.072 463.929,409.349C463.936,409.367 463.945,409.383 463.956,409.399C464.09,409.592 465.021,410.931 465.142,411.105C465.151,411.117 465.158,411.13 465.164,411.144C465.285,411.411 466.539,414.191 466.616,414.362C466.619,414.367 466.621,414.372 466.624,414.378C466.687,414.493 467.412,415.829 467.466,415.929C467.468,415.933 467.47,415.937 467.472,415.941C467.515,416.031 468.03,417.117 468.081,417.225C468.084,417.23 468.087,417.236 468.09,417.242C468.153,417.353 468.841,418.552 468.867,418.597C468.867,418.598 468.868,418.599 468.868,418.6C468.898,418.652 469.777,420.233 469.845,420.356C469.848,420.361 469.851,420.365 469.854,420.37C469.936,420.495 471.054,422.209 471.097,422.276C471.098,422.277 471.099,422.278 471.099,422.28C471.14,422.344 472.142,423.947 472.179,424.007C472.18,424.008 472.181,424.01 472.181,424.011C472.217,424.07 473.138,425.599 473.162,425.64C473.162,425.64 473.163,425.641 473.163,425.641C473.183,425.675 473.81,426.734 473.859,426.817C473.861,426.821 473.863,426.824 473.865,426.827C473.926,426.919 474.801,428.246 474.887,428.377C474.892,428.384 474.897,428.391 474.902,428.397C474.988,428.503 475.757,429.443 475.85,429.558C475.856,429.566 475.862,429.574 475.867,429.582C475.934,429.688 476.406,430.431 476.482,430.552C476.489,430.563 476.496,430.573 476.505,430.583C476.63,430.725 477.631,431.859 477.733,431.974C477.738,431.98 477.743,431.987 477.748,431.993C477.827,432.104 478.532,433.088 478.615,433.204C478.62,433.212 478.625,433.219 478.63,433.227C478.697,433.348 479.25,434.339 479.33,434.48C479.336,434.492 479.343,434.502 479.351,434.512C479.458,434.648 480.251,435.657 480.317,435.74C480.32,435.744 480.323,435.748 480.325,435.751C480.39,435.845 481.232,437.049 481.284,437.124C481.286,437.126 481.288,437.129 481.289,437.131C481.336,437.193 481.968,438.031 482.001,438.075C482.002,438.076 482.003,438.077 482.004,438.078C482.045,438.131 482.994,439.343 483.079,439.451C483.083,439.456 483.087,439.461 483.09,439.466C483.167,439.582 484.042,440.903 484.098,440.986C484.099,440.988 484.101,440.991 484.103,440.994C484.172,441.09 485.466,442.879 485.53,442.968C485.531,442.97 485.533,442.972 485.534,442.974C485.595,443.065 486.828,444.899 486.924,445.043C486.928,445.049 486.933,445.055 486.937,445.06C487.007,445.147 487.601,445.882 487.629,445.916C487.629,445.917 487.63,445.918 487.631,445.919C487.657,445.95 488.167,446.565 488.263,446.681C488.274,446.694 488.283,446.707 488.291,446.722C488.349,446.831 488.61,447.317 488.642,447.377C488.644,447.381 488.646,447.385 488.649,447.389C488.685,447.448 488.988,447.944 489.01,447.98C489.011,447.981 489.012,447.983 489.013,447.984C489.041,448.029 489.55,448.826 489.619,448.935C489.625,448.943 489.63,448.951 489.637,448.959C489.807,449.166 492.225,452.106 492.398,452.315C492.404,452.323 492.41,452.331 492.416,452.34C492.518,452.501 493.54,454.117 493.633,454.264C493.637,454.271 493.642,454.278 493.647,454.285C493.784,454.458 495.663,456.845 495.735,456.936C495.736,456.938 495.738,456.939 495.739,456.941C495.808,457.024 497.505,459.06 497.567,459.134C497.568,459.135 497.569,459.137 497.57,459.138C497.626,459.209 499.067,461.017 499.067,461.017C499.087,461.043 502.817,465.737 503.051,466.031C503.058,466.04 503.067,466.049 503.076,466.057C503.185,466.159 503.925,466.848 504.018,466.935C504.025,466.941 504.031,466.947 504.036,466.954C504.099,467.026 504.483,467.469 504.625,467.632C504.659,467.672 504.679,467.721 504.684,467.773C504.698,467.952 504.733,468.376 504.742,468.484C504.743,468.5 504.743,468.517 504.741,468.534C504.726,468.65 504.665,469.135 504.639,469.345C504.631,469.407 504.6,469.463 504.552,469.503C504.352,469.668 503.81,470.116 503.634,470.261C503.598,470.291 503.553,470.31 503.507,470.315C503.179,470.354 501.834,470.511 501.736,470.523C501.732,470.523 501.729,470.523 501.725,470.524C501.64,470.53 500.624,470.601 500.554,470.606C500.552,470.606 500.549,470.607 500.547,470.607C500.464,470.61 499.062,470.665 498.887,470.672C498.875,470.673 498.863,470.672 498.851,470.671C498.72,470.657 497.896,470.57 497.783,470.558C497.775,470.557 497.766,470.557 497.757,470.557C497.609,470.557 496.222,470.557 496.222,470.557C496.107,470.556 405.642,470.475 403.595,470.473C403.572,470.473 403.548,470.47 403.526,470.463C403.407,470.428 403.006,470.31 402.828,470.257C402.772,470.241 402.723,470.205 402.692,470.156C402.323,469.588 400.004,466.021 399.864,465.806C399.86,465.799 399.856,465.792 399.852,465.785C399.703,465.497 396.613,459.523 396.532,459.367C396.531,459.365 396.53,459.363 396.529,459.361C396.456,459.209 393.788,453.667 393.653,453.386C393.649,453.379 393.646,453.371 393.643,453.364C393.55,453.108 391.934,448.662 391.875,448.5C391.873,448.497 391.872,448.494 391.871,448.491C391.804,448.328 389.947,443.787 389.879,443.621C389.877,443.618 389.876,443.615 389.875,443.612C389.796,443.441 387.561,438.564 387.442,438.304C387.439,438.297 387.436,438.289 387.433,438.282C387.338,438.007 385.523,432.764 385.444,432.534C385.442,432.529 385.44,432.524 385.439,432.519C385.38,432.303 384.141,427.76 384.111,427.649C384.11,427.648 384.11,427.646 384.11,427.645C384.076,427.529 382.609,422.501 382.559,422.328C382.558,422.325 382.557,422.322 382.556,422.319C382.518,422.164 381.509,418.129 381.451,417.898C381.449,417.891 381.448,417.885 381.447,417.878C381.405,417.618 380.603,412.602 380.563,412.353C380.562,412.346 380.561,412.34 380.559,412.334C380.524,412.19 380.105,410.461 380.049,410.233C380.045,410.217 380.043,410.2 380.042,410.183C380.03,409.773 379.866,404.546 379.862,404.398C379.862,404.396 379.862,404.393 379.861,404.391C379.854,404.255 379.601,399.877 379.589,399.677C379.589,399.673 379.589,399.668 379.589,399.663C379.589,399.469 379.589,395.338 379.589,395.053C379.589,395.042 379.59,395.032 379.591,395.022C379.629,394.725 380.199,390.248 380.224,390.048C380.225,390.043 380.225,390.038 380.226,390.034C380.26,389.854 380.934,386.228 380.951,386.136C380.952,386.135 380.952,386.134 380.952,386.132C380.968,386.042 381.565,382.543 381.587,382.413C381.587,382.411 381.588,382.408 381.588,382.406C381.606,382.276 382.097,378.756 382.131,378.516C382.132,378.507 382.134,378.499 382.136,378.49C382.196,378.249 383.097,374.646 383.131,374.51C383.132,374.507 383.132,374.504 383.133,374.502C383.168,374.382 383.983,371.529 384.038,371.336C384.04,371.329 384.042,371.323 384.044,371.316C384.116,371.128 385.18,368.347 385.22,368.24C385.221,368.238 385.222,368.236 385.223,368.234C385.262,368.123 386.328,365.089 386.399,364.887C386.401,364.879 386.404,364.872 386.407,364.866C386.48,364.706 387.379,362.745 387.401,362.697C387.402,362.696 387.402,362.695 387.402,362.695C387.426,362.641 388.488,360.274 388.577,360.074C388.581,360.065 388.585,360.057 388.59,360.048C388.682,359.896 389.586,358.39 389.667,358.254C389.671,358.247 389.675,358.241 389.678,358.234C389.754,358.075 390.69,356.126 390.759,355.981C390.762,355.976 390.765,355.97 390.768,355.965C390.839,355.842 391.686,354.379 391.758,354.255C391.761,354.25 391.764,354.244 391.767,354.238C391.833,354.1 392.666,352.357 392.754,352.173C392.759,352.163 392.765,352.152 392.772,352.143C392.889,351.967 394.034,350.25 394.034,350.25C394.036,350.246 395.451,348.124 395.487,348.07C395.487,348.07 395.488,348.069 395.488,348.068C395.521,348.018 396.75,346.134 396.844,345.989C396.848,345.983 396.852,345.977 396.857,345.971C396.966,345.832 398.421,343.973 398.483,343.893C398.485,343.891 398.486,343.889 398.487,343.887C398.549,343.804 400.03,341.801 400.03,341.801C400.043,341.783 401.268,340.121 401.301,340.076C401.301,340.075 401.302,340.074 401.302,340.074C401.334,340.03 402.464,338.466 402.482,338.44C402.482,338.439 402.483,338.439 402.483,338.439C402.504,338.41 403.886,336.509 403.935,336.443C403.936,336.441 403.937,336.44 403.937,336.439C403.979,336.379 405.055,334.842 405.193,334.645C405.203,334.631 405.214,334.618 405.227,334.606C405.392,334.451 406.61,333.309 406.66,333.263C406.661,333.262 406.662,333.261 406.663,333.26C406.724,333.204 408.494,331.603 408.567,331.537C408.569,331.536 408.57,331.534 408.572,331.533C408.644,331.464 410.405,329.787 410.475,329.72C410.476,329.719 410.478,329.717 410.479,329.716C410.538,329.657 411.82,328.375 411.924,328.271C411.928,328.267 411.933,328.262 411.937,328.257C412.041,328.135 413.455,326.486 413.56,326.364C413.564,326.359 413.568,326.354 413.573,326.35C413.665,326.257 414.697,325.226 414.825,325.098C414.833,325.089 414.843,325.081 414.853,325.074C415.01,324.958 416.365,323.96 416.544,323.827C416.557,323.818 416.569,323.807 416.58,323.795C416.752,323.606 418.22,321.991 418.369,321.828C418.377,321.819 418.385,321.811 418.395,321.803C418.565,321.664 420.229,320.302 420.37,320.187C420.376,320.182 420.382,320.176 420.388,320.17C420.503,320.055 421.73,318.828 421.903,318.655C421.917,318.642 421.932,318.63 421.948,318.62C422.187,318.473 424.092,317.3 424.272,317.19C424.281,317.184 424.29,317.178 424.298,317.171C424.497,317.009 427.014,314.964 427.184,314.826C427.19,314.822 427.196,314.817 427.203,314.813C427.371,314.701 429.684,313.158 429.902,313.013C429.913,313.006 429.923,312.998 429.933,312.989C430.126,312.809 432.198,310.885 432.439,310.661C432.454,310.647 432.471,310.635 432.49,310.625C432.797,310.459 435.595,308.947 435.81,308.83C435.819,308.826 435.828,308.82 435.836,308.815C436.03,308.677 438.481,306.937 438.632,306.83C438.637,306.826 438.642,306.823 438.647,306.82C438.824,306.713 442.018,304.78 442.091,304.736C442.091,304.735 442.092,304.735 442.093,304.734C442.17,304.689 445.783,302.56 445.904,302.488C445.906,302.487 445.909,302.486 445.911,302.485C446.029,302.42 449.402,300.565 449.537,300.49C449.54,300.489 449.543,300.487 449.546,300.486C449.675,300.421 452.699,298.909 452.809,298.854C452.811,298.853 452.813,298.852 452.815,298.851C452.91,298.8 455.214,297.566 455.349,297.493C455.354,297.491 455.358,297.489 455.362,297.487C455.496,297.425 457.707,296.398 457.888,296.314C457.895,296.311 457.903,296.307 457.91,296.302C458.077,296.202 460.064,295.01 460.166,294.949C460.169,294.947 460.172,294.946 460.175,294.944C460.289,294.881 462.717,293.55 462.966,293.413C462.98,293.406 462.994,293.399 463.009,293.395C463.231,293.324 465.019,292.751 465.236,292.682C465.251,292.677 465.265,292.672 465.278,292.664C465.497,292.546 467.453,291.493 467.61,291.409C467.617,291.405 467.623,291.402 467.63,291.399C467.821,291.318 470.557,290.157 470.617,290.132C470.618,290.132 470.618,290.131 470.619,290.131C470.676,290.107 473.112,289.099 473.247,289.044C473.251,289.042 473.254,289.041 473.258,289.039C473.399,288.989 475.999,288.067 476.067,288.042C476.068,288.042 476.069,288.042 476.07,288.041C476.148,288.013 479.435,286.802 479.519,286.771C479.52,286.77 479.521,286.77 479.523,286.769C479.59,286.743 481.763,285.908 481.878,285.863C481.881,285.862 481.885,285.861 481.888,285.86C482.008,285.807 484.405,284.769 484.596,284.686C484.604,284.682 484.613,284.679 484.621,284.677C484.81,284.618 487.052,283.922 487.232,283.866C487.239,283.864 487.247,283.862 487.255,283.861C487.451,283.82 490.039,283.287 490.309,283.232C490.324,283.229 490.339,283.224 490.353,283.218C490.596,283.118 492.808,282.202 492.958,282.14C492.964,282.138 492.969,282.136 492.975,282.134C493.146,282.077 495.964,281.138 495.964,281.138C495.968,281.136 498.332,280.348 498.415,280.321C498.416,280.32 498.418,280.32 498.419,280.319C498.504,280.289 500.978,279.411 501.215,279.327C501.227,279.323 501.24,279.319 501.252,279.317C501.531,279.265 504.793,278.658 505.114,278.599C505.131,278.595 505.148,278.59 505.164,278.584C505.447,278.466 508.161,277.335 508.394,277.238C508.405,277.233 508.416,277.23 508.427,277.227C508.635,277.173 510.709,276.635 510.855,276.597C510.861,276.596 510.866,276.594 510.871,276.593C511.035,276.538 513.679,275.657 513.852,275.599C513.858,275.597 513.864,275.595 513.87,275.594C514.057,275.547 517.038,274.802 517.13,274.779C517.131,274.778 517.132,274.778 517.134,274.778C517.21,274.757 519.315,274.19 519.483,274.145C519.49,274.143 519.497,274.141 519.504,274.138C519.701,274.066 522.653,272.978 522.926,272.878C522.939,272.873 522.953,272.869 522.967,272.867C523.251,272.816 526.284,272.271 526.479,272.236C526.486,272.235 526.492,272.234 526.499,272.232C526.682,272.183 529.447,271.452 529.573,271.418C529.576,271.417 529.579,271.416 529.582,271.416C529.71,271.377 532.548,270.509 532.826,270.424C532.841,270.42 532.856,270.417 532.871,270.415C533.107,270.389 535.104,270.167 535.288,270.146C535.297,270.145 535.306,270.145 535.315,270.145C535.607,270.145 540.525,270.145 540.658,270.145C540.66,270.145 540.662,270.145 540.664,270.145C540.831,270.141 548.576,269.967 548.744,269.963C548.746,269.963 548.747,269.963 548.749,269.963C549.017,269.963 568.708,269.963 569.091,269.963C569.094,269.963 569.098,269.963 569.102,269.963C569.387,269.95 580.365,269.443 580.887,269.419C580.9,269.419 580.913,269.419 580.926,269.42C581.238,269.455 585.271,269.903 585.763,269.958C585.796,269.961 585.827,269.971 585.855,269.987C585.985,270.059 586.374,270.276 586.57,270.385C586.642,270.425 586.689,270.499 586.695,270.581C586.709,270.776 586.736,271.137 586.749,271.324C586.755,271.4 586.725,271.474 586.669,271.524C586.498,271.678 586.132,272.007 586.037,272.093C586.021,272.107 586.004,272.119 585.986,272.128C585.78,272.236 584.485,272.912 584.319,272.998C584.308,273.004 584.296,273.009 584.283,273.013C584.078,273.082 582.238,273.695 582.08,273.748C582.073,273.75 582.066,273.753 582.059,273.756C581.917,273.818 580.369,274.499 580.22,274.565C580.213,274.568 580.205,274.571 580.197,274.574C580.029,274.628 578.151,275.234 577.924,275.307C577.909,275.312 577.895,275.318 577.881,275.325C577.673,275.44 575.966,276.382 575.763,276.494C575.75,276.501 575.736,276.507 575.722,276.512C575.455,276.601 572.751,277.502 572.622,277.545C572.619,277.546 572.616,277.547 572.613,277.548C572.503,277.59 570.494,278.352 570.46,278.365C570.46,278.365 570.459,278.365 570.459,278.366C570.428,278.377 568.738,279.011 568.675,279.034C568.674,279.035 568.673,279.035 568.672,279.036C568.606,279.061 566.769,279.783 566.602,279.849C566.594,279.852 566.586,279.856 566.578,279.86C566.434,279.935 564.991,280.688 564.884,280.744C564.88,280.746 564.876,280.748 564.871,280.75C564.769,280.796 563.489,281.372 563.395,281.414C563.391,281.416 563.388,281.417 563.384,281.419C563.267,281.465 561.348,282.218 561.306,282.235C561.306,282.235 561.305,282.235 561.305,282.236C561.258,282.254 558.864,283.212 558.709,283.274C558.703,283.276 558.698,283.278 558.693,283.281C558.559,283.346 556.695,284.246 556.551,284.315C556.545,284.318 556.54,284.32 556.534,284.323C556.372,284.385 554.094,285.271 553.88,285.355C553.869,285.359 553.858,285.364 553.848,285.37C553.653,285.48 551.623,286.621 551.489,286.697C551.484,286.699 551.479,286.702 551.475,286.704C551.354,286.762 549.749,287.532 549.628,287.59C549.624,287.593 549.619,287.595 549.614,287.598C549.523,287.649 548.555,288.193 548.441,288.257C548.434,288.261 548.427,288.265 548.419,288.268C548.275,288.331 546.83,288.959 546.725,289.005C546.721,289.007 546.717,289.009 546.713,289.011C546.608,289.063 545.124,289.805 544.949,289.892C544.938,289.898 544.927,289.903 544.915,289.907C544.721,289.969 543.017,290.516 542.86,290.567C542.853,290.569 542.845,290.572 542.838,290.575C542.694,290.638 541.208,291.284 541.14,291.314C541.138,291.314 541.136,291.315 541.135,291.316C541.066,291.344 539.584,291.95 539.503,291.983C539.501,291.984 539.499,291.985 539.497,291.986C539.426,292.018 538.251,292.54 538.165,292.578C538.162,292.579 538.159,292.581 538.155,292.582C538.051,292.623 536.337,293.296 536.103,293.388C536.085,293.395 536.069,293.404 536.053,293.415C535.873,293.539 534.702,294.348 534.609,294.412C534.605,294.415 534.601,294.417 534.597,294.42C534.493,294.483 533.099,295.331 533.02,295.379C533.018,295.38 533.016,295.381 533.014,295.383C532.904,295.454 530.165,297.246 530.141,297.262Z" style="fill:white;"/>
        <ellipse cx="577.99" cy="215.151" rx="33.924" ry="34.11" style="fill:white;"/>
    </g>
</svg>
