<?xml version="1.0" encoding="UTF-8" standalone="no"?>
<!DOCTYPE svg PUBLIC "-//W3C//DTD SVG 1.1//EN" "http://www.w3.org/Graphics/SVG/1.1/DTD/svg11.dtd">
<svg width="100%" height="100%" viewBox="0 0 1000 1000" version="1.1" xmlns="http://www.w3.org/2000/svg" xmlns:xlink="http://www.w3.org/1999/xlink" xml:space="preserve" xmlns:serif="http://www.serif.com/" style="fill-rule:evenodd;clip-rule:evenodd;stroke-linejoin:round;stroke-miterlimit:2;">
    <g transform="matrix(0.976562,0,0,0.976562,0,0)">
        <path d="M1024,256L1024,768C1024,909.29 909.29,1024 768,1024L256,1024C114.71,1024 0,909.29 0,768L0,256C0,114.71 114.71,0 256,0L768,0C909.29,0 1024,114.71 1024,256Z" style="fill:rgb(13,36,56);"/>
    </g>
    <g transform="matrix(1,0,0,1,0,13.133944)">
        <g transform="matrix(1,0,0,1,0,3.164741)">
            <path d="M725,430.365L725,655.232C725,693.738 693.738,725 655.232,725L601.889,725C593.605,725 586.889,718.284 586.889,710C586.889,668.655 586.889,556.104 586.889,556.104C586.889,525.139 567.422,500 543.444,500L456.556,500C432.578,500 413.111,525.139 413.111,556.104L413.111,710C413.111,718.284 406.395,725 398.111,725C377.993,725 344.768,725 344.768,725C306.262,725 275,693.738 275,655.232L275,430.365L725,430.365Z" style="fill:white;"/>
        </g>
        <g transform="matrix(1,0,0,1.598214,7.09746,-244.339448)">
            <path d="M481.766,308.775C488.422,305.787 497.383,305.787 504.039,308.775C548.737,328.84 714.968,403.461 762.271,424.695C764.036,425.487 764.781,426.901 764.116,428.195C763.451,429.488 761.528,430.365 759.356,430.365C678.562,430.365 307.243,430.365 226.449,430.365C224.277,430.365 222.354,429.488 221.689,428.195C221.024,426.901 221.769,425.487 223.534,424.695C270.837,403.461 437.068,328.84 481.766,308.775Z" style="fill:white;"/>
        </g>
    </g>
</svg>
