<?xml version="1.0" encoding="UTF-8" standalone="no"?>
<!DOCTYPE svg PUBLIC "-//W3C//DTD SVG 1.1//EN" "http://www.w3.org/Graphics/SVG/1.1/DTD/svg11.dtd">
<svg width="100%" height="100%" viewBox="0 0 1000 1000" version="1.1" xmlns="http://www.w3.org/2000/svg" xmlns:xlink="http://www.w3.org/1999/xlink" xml:space="preserve" xmlns:serif="http://www.serif.com/" style="fill-rule:evenodd;clip-rule:evenodd;stroke-linejoin:round;stroke-miterlimit:2;">
    <g transform="matrix(0.976562,0,0,0.976562,0,0)">
        <path d="M1024,256L1024,768C1024,909.29 909.29,1024 768,1024L256,1024C114.71,1024 0,909.29 0,768L0,256C0,114.71 114.71,0 256,0L768,0C909.29,0 1024,114.71 1024,256Z" style="fill:rgb(13,36,56);"/>
    </g>
    <g transform="matrix(1,0,0,1,384.609588,384.97476)">
        <path d="M500,205.12L500,435.27C500,470.996 470.996,500 435.27,500L205.12,500C169.395,500 140.39,470.996 140.39,435.27L140.39,205.12C140.39,169.395 169.395,140.39 205.12,140.39L435.27,140.39C470.996,140.39 500,169.395 500,205.12ZM449.754,233.597C449.754,207.855 428.855,186.956 403.113,186.956L237.278,186.956C211.536,186.956 190.637,207.855 190.637,233.597L190.637,406.793C190.637,432.535 211.536,453.434 237.278,453.434L403.113,453.434C428.855,453.434 449.754,432.535 449.754,406.793L449.754,233.597Z" style="fill:white;"/>
    </g>
    <g transform="matrix(1,0,0,1,-26.390412,-25.730343)">
        <path d="M500,205.12L500,435.27C500,470.996 470.996,500 435.27,500L205.12,500C169.395,500 140.39,470.996 140.39,435.27L140.39,205.12C140.39,169.395 169.395,140.39 205.12,140.39L435.27,140.39C470.996,140.39 500,169.395 500,205.12ZM449.754,233.597C449.754,207.855 428.855,186.956 403.113,186.956L237.278,186.956C211.536,186.956 190.637,207.855 190.637,233.597L190.637,406.793C190.637,432.535 211.536,453.434 237.278,453.434L403.113,453.434C428.855,453.434 449.754,432.535 449.754,406.793L449.754,233.597Z" style="fill:white;"/>
        <g transform="matrix(1,0,0,1,81.519393,81.519393)">
            <path d="M320.195,197.916L320.195,279.436C320.195,301.931 301.931,320.195 279.436,320.195L197.916,320.195C175.42,320.195 157.156,301.931 157.156,279.436L157.156,197.916C157.156,175.42 175.42,157.156 197.916,157.156L279.436,157.156C301.931,157.156 320.195,175.42 320.195,197.916Z" style="fill:white;"/>
        </g>
    </g>
    <g transform="matrix(1,0,0,1,384.609588,-25.730343)">
        <path d="M500,205.12L500,435.27C500,470.996 470.996,500 435.27,500L205.12,500C169.395,500 140.39,470.996 140.39,435.27L140.39,205.12C140.39,169.395 169.395,140.39 205.12,140.39L435.27,140.39C470.996,140.39 500,169.395 500,205.12ZM449.754,233.597C449.754,207.855 428.855,186.956 403.113,186.956L237.278,186.956C211.536,186.956 190.637,207.855 190.637,233.597L190.637,406.793C190.637,432.535 211.536,453.434 237.278,453.434L403.113,453.434C428.855,453.434 449.754,432.535 449.754,406.793L449.754,233.597Z" style="fill:white;"/>
    </g>
    <g transform="matrix(1,0,0,1,466.128981,55.789049)">
        <path d="M320.195,197.916L320.195,279.436C320.195,301.931 301.931,320.195 279.436,320.195L197.916,320.195C175.42,320.195 157.156,301.931 157.156,279.436L157.156,197.916C157.156,175.42 175.42,157.156 197.916,157.156L279.436,157.156C301.931,157.156 320.195,175.42 320.195,197.916Z" style="fill:white;"/>
    </g>
    <g transform="matrix(1,0,0,1,-26.390412,384.97476)">
        <path d="M500,205.12L500,435.27C500,470.996 470.996,500 435.27,500L205.12,500C169.395,500 140.39,470.996 140.39,435.27L140.39,205.12C140.39,169.395 169.395,140.39 205.12,140.39L435.27,140.39C470.996,140.39 500,169.395 500,205.12ZM449.754,233.597C449.754,207.855 428.855,186.956 403.113,186.956L237.278,186.956C211.536,186.956 190.637,207.855 190.637,233.597L190.637,406.793C190.637,432.535 211.536,453.434 237.278,453.434L403.113,453.434C428.855,453.434 449.754,432.535 449.754,406.793L449.754,233.597Z" style="fill:white;"/>
        <g transform="matrix(1,0,0,1,81.519393,81.519393)">
            <path d="M320.195,197.916L320.195,279.436C320.195,301.931 301.931,320.195 279.436,320.195L197.916,320.195C175.42,320.195 157.156,301.931 157.156,279.436L157.156,197.916C157.156,175.42 175.42,157.156 197.916,157.156L279.436,157.156C301.931,157.156 320.195,175.42 320.195,197.916Z" style="fill:white;"/>
        </g>
    </g>
</svg>
