<?xml version="1.0" encoding="UTF-8" standalone="no"?>
<!DOCTYPE svg PUBLIC "-//W3C//DTD SVG 1.1//EN" "http://www.w3.org/Graphics/SVG/1.1/DTD/svg11.dtd">
<svg width="100%" height="100%" viewBox="0 0 1000 1000" version="1.1" xmlns="http://www.w3.org/2000/svg" xmlns:xlink="http://www.w3.org/1999/xlink" xml:space="preserve" xmlns:serif="http://www.serif.com/" style="fill-rule:evenodd;clip-rule:evenodd;stroke-linejoin:round;stroke-miterlimit:2;">
    <g transform="matrix(0.976562,0,0,0.976562,0.000256,0.000256)">
        <path d="M1024,256L1024,768C1024,909.29 909.29,1024 768,1024L256,1024C114.71,1024 0,909.29 0,768L0,256C0,114.71 114.71,0 256,0L768,0C909.29,0 1024,114.71 1024,256Z" style="fill:rgb(13,36,56);"/>
        <g transform="matrix(1.024001,0,0,1.024001,-57.384934,51.02722)">
            <path d="M591.409,181.514L591.409,219.031C608.369,221.626 624.992,226.08 640.978,232.313L659.737,199.822C681.615,208.884 702.21,220.775 720.998,235.191L702.239,267.682C715.63,278.41 727.799,290.579 738.526,303.969L771.017,285.211C785.433,303.998 797.324,324.594 806.386,346.472L773.895,365.23C780.128,381.216 784.582,397.839 787.178,414.799L824.694,414.799C827.785,438.278 827.785,462.059 824.694,485.538L787.178,485.538C784.582,502.498 780.128,519.121 773.895,535.107L806.386,553.865C797.324,575.743 785.433,596.339 771.017,615.126L738.526,596.368C727.799,609.758 715.63,621.927 702.239,632.655L720.998,665.146C702.21,679.562 681.615,691.453 659.737,700.515L640.978,668.024C624.992,674.257 608.369,678.711 591.409,681.306L591.409,718.823C567.931,721.914 544.149,721.914 520.671,718.823L520.671,681.306C503.71,678.711 487.087,674.257 471.101,668.024L452.343,700.515C430.465,691.453 409.869,679.562 391.082,665.146L409.84,632.655C396.45,621.927 384.281,609.758 373.553,596.368L341.062,615.126C326.647,596.339 314.756,575.743 305.693,553.865L338.184,535.107C331.951,519.121 327.497,502.498 324.902,485.538L287.385,485.538C284.294,462.059 284.294,438.278 287.385,414.799L324.902,414.799C327.497,397.839 331.951,381.216 338.184,365.23L305.693,346.472C314.756,324.594 326.647,303.998 341.062,285.211L373.553,303.969C384.281,290.579 396.45,278.41 409.84,267.682L391.082,235.191C409.869,220.775 430.465,208.884 452.343,199.822L471.101,232.313C487.087,226.08 503.71,221.626 520.671,219.031L520.671,181.514C544.149,178.423 567.931,178.423 591.409,181.514ZM556.04,312.024C632.284,312.024 694.184,373.924 694.184,450.168C694.184,526.413 632.284,588.313 556.04,588.313C479.796,588.313 417.895,526.413 417.895,450.168C417.895,373.924 479.796,312.024 556.04,312.024Z" style="fill:rgb(235,235,235);"/>
        </g>
    </g>
</svg>
